<svg width="20" height="20" viewBox="0 0 20 20" fill="none" xmlns="http://www.w3.org/2000/svg">
<path d="M10 2C8.34315 2 7 3.34315 7 5C7 6.65685 8.34315 8 10 8C11.6569 8 13 6.65685 13 5C13 3.34315 11.6569 2 10 2Z" fill="#212121"/>
<path d="M10 9C7.23858 9 5 11.2386 5 14C5 16.7614 7.23858 19 10 19C12.7614 19 15 16.7614 15 14C15 11.2386 12.7614 9 10 9Z" fill="#212121"/>
<path d="M3.5 5C3.5 4.44772 3.94772 4 4.5 4H5.5C6.05228 4 6.5 4.44772 6.5 5C6.5 5.55228 6.05228 6 5.5 6H4.5C3.94772 6 3.5 5.55228 3.5 5Z" fill="#212121"/>
<path d="M13.5 5C13.5 4.44772 13.9477 4 14.5 4H15.5C16.0523 4 16.5 4.44772 16.5 5C16.5 5.55228 16.0523 6 15.5 6H14.5C13.9477 6 13.5 5.55228 13.5 5Z" fill="#212121"/>
<path d="M3.5 14C3.5 13.4477 3.94772 13 4.5 13H5.5C6.05228 13 6.5 13.4477 6.5 14C6.5 14.5523 6.05228 15 5.5 15H4.5C3.94772 15 3.5 14.5523 3.5 14Z" fill="#212121"/>
<path d="M13.5 14C13.5 13.4477 13.9477 13 14.5 13H15.5C16.0523 13 16.5 13.4477 16.5 14C16.5 14.5523 16.0523 15 15.5 15H14.5C13.9477 15 13.5 14.5523 13.5 14Z" fill="#212121"/>
</svg>